<svg xmlns="http://www.w3.org/2000/svg" version="1.1" xmlns:xlink="http://www.w3.org/1999/xlink" xmlns:svgjs="http://svgjs.dev/svgjs" width="1440" height="560" preserveAspectRatio="none" viewBox="0 0 1440 560"><g mask="url(&quot;#SvgjsMask6545&quot;)" fill="none"><rect width="1440" height="560" x="0" y="0" fill="url(&quot;#SvgjsLinearGradient6546&quot;)"></rect><g><path d="M1053 195L1079 221L1105 247L1131 247L1157 247M533 195L559 221L585 221L611 247M1027 195L1053 169M637 195L663 169L689 169L715 169L741 169L767 169L793 169L819 169L845 169M143 247L169 273M351 221L377 247M325 247L351 247L377 273L403 273L429 273L455 273L481 273L507 273L533 273L559 273L585 273L611 273L637 273L663 273M39 273L65 299L91 299L117 299M13 273L39 299M897 195L923 221L949 221L975 221L1001 221M975 195L1001 169L1027 169L1053 143L1079 143M-13 273L13 273L39 273L65 273L91 273L117 247L143 247L169 247L195 247L221 247L247 247L273 247L299 247L325 247L351 221L377 221L403 221L429 195L455 195L481 195L507 195L533 195L559 195L585 195L611 195L637 195L663 195L689 195L715 195L741 195L767 195L793 195L819 195L845 195L871 195L897 195L923 195L949 195L975 195L1001 195L1027 195L1053 195L1079 195L1105 169" stroke="url(&quot;#SvgjsLinearGradient6547&quot;)" stroke-width="4.33"></path><path d="M1100.67 169 a4.33 4.33 0 1 0 8.66 0 a4.33 4.33 0 1 0 -8.66 0zM1152.67 247 a4.33 4.33 0 1 0 8.66 0 a4.33 4.33 0 1 0 -8.66 0zM606.67 247 a4.33 4.33 0 1 0 8.66 0 a4.33 4.33 0 1 0 -8.66 0zM1048.67 169 a4.33 4.33 0 1 0 8.66 0 a4.33 4.33 0 1 0 -8.66 0zM840.67 169 a4.33 4.33 0 1 0 8.66 0 a4.33 4.33 0 1 0 -8.66 0zM164.67 273 a4.33 4.33 0 1 0 8.66 0 a4.33 4.33 0 1 0 -8.66 0zM372.67 247 a4.33 4.33 0 1 0 8.66 0 a4.33 4.33 0 1 0 -8.66 0zM658.67 273 a4.33 4.33 0 1 0 8.66 0 a4.33 4.33 0 1 0 -8.66 0zM112.67 299 a4.33 4.33 0 1 0 8.66 0 a4.33 4.33 0 1 0 -8.66 0zM34.67 299 a4.33 4.33 0 1 0 8.66 0 a4.33 4.33 0 1 0 -8.66 0zM996.67 221 a4.33 4.33 0 1 0 8.66 0 a4.33 4.33 0 1 0 -8.66 0zM1074.67 143 a4.33 4.33 0 1 0 8.66 0 a4.33 4.33 0 1 0 -8.66 0z" fill="url(&quot;#SvgjsLinearGradient6547&quot;)"></path><path d="M221 325L247 325M143 325L169 299L195 299M-13 299L13 325L39 325L65 325L91 325L117 325L143 325L169 325L195 325L221 325L247 351" stroke="url(&quot;#SvgjsLinearGradient6547&quot;)" stroke-width="4.33"></path><path d="M242.67 351 a4.33 4.33 0 1 0 8.66 0 a4.33 4.33 0 1 0 -8.66 0zM242.67 325 a4.33 4.33 0 1 0 8.66 0 a4.33 4.33 0 1 0 -8.66 0zM190.67 299 a4.33 4.33 0 1 0 8.66 0 a4.33 4.33 0 1 0 -8.66 0z" fill="url(&quot;#SvgjsLinearGradient6547&quot;)"></path><path d="M455 143L481 169L507 169L533 169L559 169M585 143L611 169L637 169M429 169L455 169M-13 247L13 247L39 247L65 247L91 247L117 221L143 221L169 221L195 221L221 221L247 221L273 221L299 221L325 221L351 195L377 195L403 195L429 169L455 143L481 143L507 143L533 143L559 143L585 143L611 143L637 143L663 143L689 143L715 143L741 143L767 143L793 143" stroke="url(&quot;#SvgjsLinearGradient6547&quot;)" stroke-width="4.33"></path><path d="M788.67 143 a4.33 4.33 0 1 0 8.66 0 a4.33 4.33 0 1 0 -8.66 0zM554.67 169 a4.33 4.33 0 1 0 8.66 0 a4.33 4.33 0 1 0 -8.66 0zM632.67 169 a4.33 4.33 0 1 0 8.66 0 a4.33 4.33 0 1 0 -8.66 0zM450.67 169 a4.33 4.33 0 1 0 8.66 0 a4.33 4.33 0 1 0 -8.66 0z" fill="url(&quot;#SvgjsLinearGradient6547&quot;)"></path><path d="M1261 455L1287 429L1313 429L1339 429L1365 429L1391 429M585 377L611 351M1157 455L1183 429L1209 429L1235 429M819 377L845 351L871 351L897 351L923 351L949 351L975 351L1001 351L1027 351L1053 325L1079 325L1105 325L1131 325L1157 325L1183 325L1209 325M273 377L299 351L325 325L351 325L377 325L403 325L429 325L455 325L481 325M663 377L689 351L715 351L741 351L767 351L793 351L819 351L845 325L871 299M481 351L507 351M949 377L975 403M1105 429L1131 403M429 351L455 377L481 377M403 351L429 377M923 377L949 403L975 429L1001 429M299 377L325 377L351 377L377 377L403 377M-13 325L13 351L39 351L65 351L91 351L117 351L143 351L169 351L195 351L221 351L247 377L273 377L299 377L325 351L351 351L377 351L403 351L429 351L455 351L481 351L507 377L533 377L559 377L585 377L611 377L637 377L663 377L689 377L715 377L741 377L767 377L793 377L819 377L845 377L871 377L897 377L923 377L949 377L975 377L1001 403L1027 429L1053 429L1079 429L1105 429L1131 429L1157 455L1183 455L1209 455L1235 455L1261 455L1287 455L1313 481L1339 481L1365 481L1391 481" stroke="url(&quot;#SvgjsLinearGradient6547&quot;)" stroke-width="4.33"></path><path d="M1386.67 481 a4.33 4.33 0 1 0 8.66 0 a4.33 4.33 0 1 0 -8.66 0zM1386.67 429 a4.33 4.33 0 1 0 8.66 0 a4.33 4.33 0 1 0 -8.66 0zM606.67 351 a4.33 4.33 0 1 0 8.66 0 a4.33 4.33 0 1 0 -8.66 0zM1230.67 429 a4.33 4.33 0 1 0 8.66 0 a4.33 4.33 0 1 0 -8.66 0zM1204.67 325 a4.33 4.33 0 1 0 8.66 0 a4.33 4.33 0 1 0 -8.66 0zM476.67 325 a4.33 4.33 0 1 0 8.66 0 a4.33 4.33 0 1 0 -8.66 0zM866.67 299 a4.33 4.33 0 1 0 8.66 0 a4.33 4.33 0 1 0 -8.66 0zM502.67 351 a4.33 4.33 0 1 0 8.66 0 a4.33 4.33 0 1 0 -8.66 0zM970.67 403 a4.33 4.33 0 1 0 8.66 0 a4.33 4.33 0 1 0 -8.66 0zM1126.67 403 a4.33 4.33 0 1 0 8.66 0 a4.33 4.33 0 1 0 -8.66 0zM476.67 377 a4.33 4.33 0 1 0 8.66 0 a4.33 4.33 0 1 0 -8.66 0zM424.67 377 a4.33 4.33 0 1 0 8.66 0 a4.33 4.33 0 1 0 -8.66 0zM996.67 429 a4.33 4.33 0 1 0 8.66 0 a4.33 4.33 0 1 0 -8.66 0zM398.67 377 a4.33 4.33 0 1 0 8.66 0 a4.33 4.33 0 1 0 -8.66 0z" fill="url(&quot;#SvgjsLinearGradient6547&quot;)"></path><path d="M1157 117L1183 91L1209 91L1235 91L1261 91L1287 91L1313 91L1339 91L1365 91L1391 117M819 117L845 143L871 143L897 143L923 143L949 143L975 143M559 117L585 91L611 91L637 91L663 91M1053 117L1079 91L1105 91M1209 117L1235 143L1261 143L1287 143L1313 143M533 117L559 91M1105 117L1131 143L1157 143L1183 143L1209 143L1235 169L1261 169L1287 169M1001 117L1027 143M1131 117L1157 91L1183 65L1209 65L1235 65L1261 65M1027 117L1053 91M715 117L741 91M689 117L715 91M-13 221L13 221L39 221L65 221L91 221L117 195L143 195L169 195L195 195L221 195L247 195L273 195L299 195L325 195L351 169L377 169L403 169L429 143L455 117L481 117L507 117L533 117L559 117L585 117L611 117L637 117L663 117L689 117L715 117L741 117L767 117L793 117L819 117L845 117L871 117L897 117L923 117L949 117L975 117L1001 117L1027 117L1053 117L1079 117L1105 117L1131 117L1157 117L1183 117L1209 117L1235 117L1261 117" stroke="url(&quot;#SvgjsLinearGradient6547&quot;)" stroke-width="4.33"></path><path d="M1256.67 117 a4.33 4.33 0 1 0 8.66 0 a4.33 4.33 0 1 0 -8.66 0zM1386.67 117 a4.33 4.33 0 1 0 8.66 0 a4.33 4.33 0 1 0 -8.66 0zM970.67 143 a4.33 4.33 0 1 0 8.66 0 a4.33 4.33 0 1 0 -8.66 0zM658.67 91 a4.33 4.33 0 1 0 8.66 0 a4.33 4.33 0 1 0 -8.66 0zM1100.67 91 a4.33 4.33 0 1 0 8.66 0 a4.33 4.33 0 1 0 -8.66 0zM1308.67 143 a4.33 4.33 0 1 0 8.66 0 a4.33 4.33 0 1 0 -8.66 0zM554.67 91 a4.33 4.33 0 1 0 8.66 0 a4.33 4.33 0 1 0 -8.66 0zM1282.67 169 a4.33 4.33 0 1 0 8.66 0 a4.33 4.33 0 1 0 -8.66 0zM1022.67 143 a4.33 4.33 0 1 0 8.66 0 a4.33 4.33 0 1 0 -8.66 0zM1256.67 65 a4.33 4.33 0 1 0 8.66 0 a4.33 4.33 0 1 0 -8.66 0zM1048.67 91 a4.33 4.33 0 1 0 8.66 0 a4.33 4.33 0 1 0 -8.66 0zM736.67 91 a4.33 4.33 0 1 0 8.66 0 a4.33 4.33 0 1 0 -8.66 0zM710.67 91 a4.33 4.33 0 1 0 8.66 0 a4.33 4.33 0 1 0 -8.66 0z" fill="url(&quot;#SvgjsLinearGradient6547&quot;)"></path><path d="M767 403L793 429L819 429L845 429L871 429L897 429L923 429L949 429M663 403L689 429L715 429M429 403L455 429L481 429L507 429M559 403L585 429L611 429L637 429L663 429L689 455L715 455L741 455L767 455L793 455L819 455L845 455L871 455L897 455M533 403L559 429L585 455L611 455L637 455L663 455M377 403L403 429L429 429L455 455M-13 351L13 377L39 377L65 377L91 377L117 377L143 377L169 377L195 377L221 377L247 403L273 403L299 403L325 403L351 403L377 403L403 403L429 403L455 403L481 403L507 403L533 403L559 403L585 403L611 403L637 403L663 403L689 403L715 403L741 403L767 403L793 403L819 403L845 403" stroke="url(&quot;#SvgjsLinearGradient6547&quot;)" stroke-width="4.33"></path><path d="M840.67 403 a4.33 4.33 0 1 0 8.66 0 a4.33 4.33 0 1 0 -8.66 0zM944.67 429 a4.33 4.33 0 1 0 8.66 0 a4.33 4.33 0 1 0 -8.66 0zM710.67 429 a4.33 4.33 0 1 0 8.66 0 a4.33 4.33 0 1 0 -8.66 0zM502.67 429 a4.33 4.33 0 1 0 8.66 0 a4.33 4.33 0 1 0 -8.66 0zM892.67 455 a4.33 4.33 0 1 0 8.66 0 a4.33 4.33 0 1 0 -8.66 0zM658.67 455 a4.33 4.33 0 1 0 8.66 0 a4.33 4.33 0 1 0 -8.66 0zM450.67 455 a4.33 4.33 0 1 0 8.66 0 a4.33 4.33 0 1 0 -8.66 0z" fill="url(&quot;#SvgjsLinearGradient6547&quot;)"></path><path d="M-13 195L13 195L39 195L65 195L91 195L117 169L143 169L169 169L195 169L221 169L247 169L273 169L299 169L325 169L351 143L377 143L403 143L429 117L455 91L481 91" stroke="url(&quot;#SvgjsLinearGradient6547&quot;)" stroke-width="4.33"></path><path d="M476.67 91 a4.33 4.33 0 1 0 8.66 0 a4.33 4.33 0 1 0 -8.66 0z" fill="url(&quot;#SvgjsLinearGradient6547&quot;)"></path><path d="M663 481L689 507L715 507L741 507L767 507M1183 507L1209 481M429 481L455 507L481 507L507 507M91 403L117 429L143 429L169 429L195 429L221 429M975 455L1001 481L1027 481L1053 481M247 429L273 455L299 455M1079 455L1105 481M1209 507L1235 507L1261 507L1287 507M949 481L975 481L1001 507L1027 507M845 481L871 507L897 507L923 507L949 507L975 507M819 481L845 507M377 455L403 455L429 455M65 403L91 429M-13 377L13 403L39 403L65 403L91 403L117 403L143 403L169 403L195 403L221 403L247 429L273 429L299 429L325 429L351 455L377 455L403 481L429 481L455 481L481 481L507 481L533 481L559 481L585 481L611 481L637 481L663 481L689 481L715 481L741 481L767 481L793 481L819 481L845 481L871 481L897 481L923 481L949 481L975 455L1001 455L1027 455L1053 455L1079 455L1105 455L1131 455L1157 481L1183 507L1209 507L1235 481L1261 481L1287 481L1313 507L1339 507" stroke="url(&quot;#SvgjsLinearGradient6547&quot;)" stroke-width="4.33"></path><path d="M1334.67 507 a4.33 4.33 0 1 0 8.66 0 a4.33 4.33 0 1 0 -8.66 0zM762.67 507 a4.33 4.33 0 1 0 8.66 0 a4.33 4.33 0 1 0 -8.66 0zM1204.67 481 a4.33 4.33 0 1 0 8.66 0 a4.33 4.33 0 1 0 -8.66 0zM502.67 507 a4.33 4.33 0 1 0 8.66 0 a4.33 4.33 0 1 0 -8.66 0zM216.67 429 a4.33 4.33 0 1 0 8.66 0 a4.33 4.33 0 1 0 -8.66 0zM1048.67 481 a4.33 4.33 0 1 0 8.66 0 a4.33 4.33 0 1 0 -8.66 0zM294.67 455 a4.33 4.33 0 1 0 8.66 0 a4.33 4.33 0 1 0 -8.66 0zM1100.67 481 a4.33 4.33 0 1 0 8.66 0 a4.33 4.33 0 1 0 -8.66 0zM1282.67 507 a4.33 4.33 0 1 0 8.66 0 a4.33 4.33 0 1 0 -8.66 0zM1022.67 507 a4.33 4.33 0 1 0 8.66 0 a4.33 4.33 0 1 0 -8.66 0zM970.67 507 a4.33 4.33 0 1 0 8.66 0 a4.33 4.33 0 1 0 -8.66 0zM840.67 507 a4.33 4.33 0 1 0 8.66 0 a4.33 4.33 0 1 0 -8.66 0zM424.67 455 a4.33 4.33 0 1 0 8.66 0 a4.33 4.33 0 1 0 -8.66 0zM86.67 429 a4.33 4.33 0 1 0 8.66 0 a4.33 4.33 0 1 0 -8.66 0z" fill="url(&quot;#SvgjsLinearGradient6547&quot;)"></path><path d="M923 91L949 65L975 65M819 91L845 65L871 65L897 65L923 65M273 143L299 117M767 91L793 65L819 65M975 91L1001 91L1027 91M351 117L377 91L403 65L429 65M247 143L273 117L299 91L325 91L351 91L377 65M39 169L65 143L91 143M741 65L767 65M-13 169L13 169L39 169L65 169L91 169L117 143L143 143L169 143L195 143L221 143L247 143L273 143L299 143L325 143L351 117L377 117L403 91L429 91L455 65L481 65L507 65L533 65L559 65L585 65L611 65L637 65L663 65L689 65L715 65L741 65L767 91L793 91L819 91L845 91L871 91L897 91L923 91L949 91L975 91L1001 65L1027 65" stroke="url(&quot;#SvgjsLinearGradient6547&quot;)" stroke-width="4.33"></path><path d="M1022.67 65 a4.33 4.33 0 1 0 8.66 0 a4.33 4.33 0 1 0 -8.66 0zM970.67 65 a4.33 4.33 0 1 0 8.66 0 a4.33 4.33 0 1 0 -8.66 0zM918.67 65 a4.33 4.33 0 1 0 8.66 0 a4.33 4.33 0 1 0 -8.66 0zM294.67 117 a4.33 4.33 0 1 0 8.66 0 a4.33 4.33 0 1 0 -8.66 0zM814.67 65 a4.33 4.33 0 1 0 8.66 0 a4.33 4.33 0 1 0 -8.66 0zM1022.67 91 a4.33 4.33 0 1 0 8.66 0 a4.33 4.33 0 1 0 -8.66 0zM424.67 65 a4.33 4.33 0 1 0 8.66 0 a4.33 4.33 0 1 0 -8.66 0zM372.67 65 a4.33 4.33 0 1 0 8.66 0 a4.33 4.33 0 1 0 -8.66 0zM86.67 143 a4.33 4.33 0 1 0 8.66 0 a4.33 4.33 0 1 0 -8.66 0zM762.67 65 a4.33 4.33 0 1 0 8.66 0 a4.33 4.33 0 1 0 -8.66 0z" fill="url(&quot;#SvgjsLinearGradient6547&quot;)"></path><path d="M299 481L325 507M91 455L117 481L143 481M247 481L273 507M-13 403L13 429L39 455L65 455L91 455L117 455L143 455L169 455L195 455L221 455L247 481L273 481L299 481L325 455" stroke="url(&quot;#SvgjsLinearGradient6547&quot;)" stroke-width="4.33"></path><path d="M320.67 455 a4.33 4.33 0 1 0 8.66 0 a4.33 4.33 0 1 0 -8.66 0zM320.67 507 a4.33 4.33 0 1 0 8.66 0 a4.33 4.33 0 1 0 -8.66 0zM138.67 481 a4.33 4.33 0 1 0 8.66 0 a4.33 4.33 0 1 0 -8.66 0zM268.67 507 a4.33 4.33 0 1 0 8.66 0 a4.33 4.33 0 1 0 -8.66 0z" fill="url(&quot;#SvgjsLinearGradient6547&quot;)"></path><path d="M221 117L247 117M13 143L39 143M143 117L169 91L195 91L221 91L247 65M-13 143L13 143L39 117L65 117L91 117L117 117L143 117L169 117L195 117L221 117L247 91" stroke="url(&quot;#SvgjsLinearGradient6547&quot;)" stroke-width="4.33"></path><path d="M242.67 91 a4.33 4.33 0 1 0 8.66 0 a4.33 4.33 0 1 0 -8.66 0zM242.67 117 a4.33 4.33 0 1 0 8.66 0 a4.33 4.33 0 1 0 -8.66 0zM34.67 143 a4.33 4.33 0 1 0 8.66 0 a4.33 4.33 0 1 0 -8.66 0zM242.67 65 a4.33 4.33 0 1 0 8.66 0 a4.33 4.33 0 1 0 -8.66 0z" fill="url(&quot;#SvgjsLinearGradient6547&quot;)"></path></g></g><defs><mask id="SvgjsMask6545"><rect width="1440" height="560" fill="#ffffff"></rect></mask><linearGradient x1="84.72%" y1="-39.29%" x2="15.28%" y2="139.29%" gradientUnits="userSpaceOnUse" id="SvgjsLinearGradient6546"><stop stop-color="#0e2a47" offset="0"></stop><stop stop-color="rgba(74, 200, 42, 1)" offset="1"></stop></linearGradient><linearGradient x1="1219.9679999999998" y1="-220.02399999999997" x2="220.03199999999998" y2="780.024" gradientUnits="userSpaceOnUse" id="SvgjsLinearGradient6547"><stop stop-color="rgba(0, 0, 0, 1)" offset="0.15"></stop><stop stop-color="rgba(255, 255, 255, 1)" offset="0.49"></stop><stop stop-color="rgba(255, 255, 255, 1)" offset="0.63"></stop><stop stop-color="rgba(32, 52, 123, 1)" offset="0.83"></stop></linearGradient></defs></svg>