<svg id="tsb" xmlns="http://www.w3.org/2000/svg" xmlns:xlink="http://www.w3.org/1999/xlink" viewBox="0 0 300 300" shape-rendering="geometricPrecision" text-rendering="geometricPrecision" project-id="107e571ced3649468a57504098949996" export-id="52c912e0114547a0a4b5ebd776b8260c" cached="false"><defs><filter id="tsb-s-ellipse1-filter" x="-150%" y="-150%" width="400%" height="400%"><feComponentTransfer id="tsb-s-ellipse1-filter-contrast-0" result="result"><feFuncR id="tsb-s-ellipse1-filter-contrast-0-R" type="linear" slope="0.98" intercept="0.01"/><feFuncG id="tsb-s-ellipse1-filter-contrast-0-G" type="linear" slope="0.98" intercept="0.01"/><feFuncB id="tsb-s-ellipse1-filter-contrast-0-B" type="linear" slope="0.98" intercept="0.01"/></feComponentTransfer></filter><linearGradient id="tsb-s-ellipse1-fill" x1="0" y1="0.5" x2="1" y2="0.5" spreadMethod="pad" gradientUnits="objectBoundingBox" gradientTransform="translate(0 0)"><stop id="tsb-s-ellipse1-fill-0" offset="0%" stop-color="rgba(0,182,8,0.7)"/><stop id="tsb-s-ellipse1-fill-1" offset="100%" stop-color="rgba(0,0,0,0.75)"/></linearGradient><filter id="tsb-s-g1-filter" x="-150%" y="-150%" width="400%" height="400%"><feGaussianBlur id="tsb-s-g1-filter-blur-0" stdDeviation="1,1" result="result"/></filter></defs><ellipse id="tsb-s-ellipse1" rx="133.310707" ry="133.818704" transform="translate(148.666271 149.582775)" filter="url(#tsb-s-ellipse1-filter)" fill="url(#tsb-s-ellipse1-fill)" stroke-width="0"/><g id="tsb-s-g1" style="mix-blend-mode:screen" filter="url(#tsb-s-g1-filter)"><g id="tsb-s-g2" transform="matrix(.653541 0.756891-.756891 0.653541 181.024051-66.841774)"><path id="tsb-s-path1" style="mix-blend-mode:lighten" d="M67.555373,58.449549q0,39.991796,82.444626,38.761279q69.524201-5.537327,70.139459,34.45447t-70.139459,34.454471q-82.444626-6.152583-82.444626,33.839213t82.444626,35.069729q69.524201-3.076292,70.139459,34.454471" transform="translate(.000001 1.230517)" paint-order="markers fill stroke" fill="none" stroke="#1ccd5b" stroke-width="6"/><path id="tsb-s-path2" style="mix-blend-mode:lighten" d="M67.555373,58.449549q0,39.991796,82.444626,38.761279q69.524201-5.537327,70.139459,34.45447t-70.139459,34.454471q-82.444626-6.152583-82.444626,33.839213t82.444626,35.069729q69.524201-3.076292,70.139459,34.454471" transform="matrix(-1 0 0 1 287.700058 1.230517)" paint-order="markers fill stroke" fill="none" stroke="#143880" stroke-width="6"/></g><g id="tsb-s-g3" transform="matrix(-1 0 0-1 305.75571 282.8993)"><path id="tsb-s-path3" style="mix-blend-mode:lighten" d="M79.398771,98.659568q39.955469,43.850823,53.593629,57.083315" fill="none" stroke="#1ccd5b" stroke-width="4"/><path id="tsb-s-path4" style="mix-blend-mode:lighten" d="M86.498949,105.40623q46.269596,50.185537,51.964956,55.806644" transform="translate(46.269596 50.185538)" fill="none" stroke="#143880" stroke-width="4"/></g><g id="tsb-s-g4" transform="matrix(-1 0 0-1 221.491959 366.652361)"><path id="tsb-s-path5" style="mix-blend-mode:lighten" d="M92.194309,111.027337q39.971987,43.997806,40.287436,44.38932" fill="none" stroke="#1ccd5b" stroke-width="4"/><path id="tsb-s-path6" style="mix-blend-mode:lighten" d="M86.398413,105.341318q46.269596,50.185537,52.065492,55.871556" transform="translate(46.269596 50.185538)" fill="none" stroke="#143880" stroke-width="4"/></g><g id="tsb-s-g5" transform="matrix(-1 0 0-1 300.062602 303.651674)"><path id="tsb-s-path7" style="mix-blend-mode:lighten" d="M92.194309,111.027337q59.445823,65.308051,61.637002,67.798027Q98.4014,117.843175,92.194309,111.027337Z" transform="translate(.064123-.064123)" fill="none" stroke="#1ccd5b" stroke-width="4"/><path id="tsb-s-path8" style="mix-blend-mode:lighten" d="M107.643069,128.587045q27.749239,29.418751,31.684116,34.230499" transform="translate(46.269596 50.185538)" fill="none" stroke="#143880" stroke-width="4"/></g><g id="tsb-s-g6" transform="matrix(-1 0 0-1 325.058532 275.211933)"><path id="tsb-s-path9" style="mix-blend-mode:lighten" d="M90.032522,109.119244q31.799167,34.923823,33.299791,36.539879" transform="translate(.060731 0.302805)" fill="none" stroke="#1ccd5b" stroke-width="4"/><path id="tsb-s-path10" style="mix-blend-mode:lighten" d="M77.102819,95.591453q46.269596,50.185537,61.361086,65.621421-55.30543-59.059987-61.361086-65.621421Z" transform="translate(46.154163 50.185538)" fill="none" stroke="#143880" stroke-width="4"/></g><g id="tsb-s-g7" transform="translate(-27.686614 25.092771)"><path id="tsb-s-path11" style="mix-blend-mode:lighten" d="M92.194309,111.027337q32.36151,35.794964,33.222812,36.716573" transform="translate(.220734-.144465)" fill="none" stroke="#1ccd5b" stroke-width="4"/><path id="tsb-s-path12" style="mix-blend-mode:lighten" d="M79.368259,97.275949q46.269596,50.185537,59.095646,63.936925" transform="translate(46.269596 50.185538)" fill="none" stroke="#143880" stroke-width="4"/></g><g id="tsb-s-g8" transform="translate(-8.671809 20.242186)"><path id="tsb-s-path13" style="mix-blend-mode:lighten" d="M79.606705,97.269874q40.634697,44.325581,53.305332,58.232499-49.233559-53.784995-53.305332-58.232499Z" fill="none" stroke="#1ccd5b" stroke-width="4"/><path id="tsb-s-path14" style="mix-blend-mode:lighten" d="M86.620759,105.216805q46.269596,50.185537,48.509821,53.70816" transform="translate(46.269596 50.185538)" fill="none" stroke="#143880" stroke-width="4"/></g><g id="tsb-s-g9" transform="translate(79.275936-67.93771)"><path id="tsb-s-path15" style="mix-blend-mode:lighten" d="M92.194309,111.027337q40.395378,43.726337,40.886558,44.257701-36.814785-39.810197-40.886558-44.257701Z" transform="translate(-.062899-.250022)" paint-order="markers fill stroke" fill="none" stroke="#1ccd5b" stroke-width="4"/><path id="tsb-s-path16" style="mix-blend-mode:lighten" d="M86.919573,105.155432q46.269596,50.185537,53.112467,57.838166" transform="translate(46.235204 50.115762)" fill="none" stroke="#143880" stroke-width="4"/></g><g id="tsb-s-g10" transform="translate(-2.307218 0.000001)"><path id="tsb-s-path17" style="mix-blend-mode:lighten" d="M91.04427,109.440349q46.269596,50.185537,63.279073,69.917801" transform="translate(0-.281219)" fill="none" stroke="#1ccd5b" stroke-width="4"/><path id="tsb-s-path18" style="mix-blend-mode:lighten" d="M107.491309,128.610174q28.851318,32.863084,29.400574,34.510852" transform="translate(46.550815 50.185538)" fill="none" stroke="#143880" stroke-width="4"/></g></g><g id="tsb-s-g11" opacity="0"><line id="tsb-s-line1" x1="-150" y1="150" x2="150" y2="-150" transform="translate(150 150)" fill="none" stroke="#3f5787" stroke-width="0.5"/><line id="tsb-s-line2" x1="134.976186" y1="-135.633003" x2="-134.976185" y2="135.633004" transform="translate(165.583344 165.72607)" fill="none" stroke="#3f5787" stroke-width="0.5"/><line id="tsb-s-line3" x1="134.976186" y1="-135.633003" x2="-134.976185" y2="135.633004" transform="translate(134.77587 136.05457)" fill="none" stroke="#3f5787" stroke-width="0.5"/></g></svg>
